ply
format ascii 1.0
comment Created by Blender 2.81 (sub 16) - www.blender.org, source file: 'cubie1.blend'
element vertex 384
property float x
property float y
property float z
property float nx
property float ny
property float nz
property uchar red
property uchar green
property uchar blue
property uchar alpha
element face 98
property list uchar uint vertex_indices
end_header
0.900000 -1.000000 -0.900000 0.000000 -1.000000 0.000000 255 239 5 255
0.900000 -1.000000 0.900000 0.000000 -1.000000 0.000000 255 239 5 255
-0.900000 -1.000000 0.900000 0.000000 -1.000000 0.000000 255 239 5 255
-0.900000 -1.000000 -0.900000 0.000000 -1.000000 0.000000 255 239 5 255
1.000000 0.900000 -0.900000 1.000000 -0.000000 0.000000 255 121 0 255
1.000000 0.900000 0.900000 1.000000 -0.000000 0.000000 255 121 0 255
1.000000 -0.900000 0.900000 1.000000 -0.000000 0.000000 255 121 0 255
1.000000 -0.900000 -0.900000 1.000000 -0.000000 0.000000 255 121 0 255
0.900000 0.900000 1.000000 0.000000 -0.000000 1.000000 0 0 255 255
-0.900000 0.900000 1.000000 0.000000 -0.000000 1.000000 0 0 255 255
-0.900000 -0.900000 1.000000 0.000000 -0.000000 1.000000 0 0 255 255
0.900000 -0.900000 1.000000 0.000000 -0.000000 1.000000 0 0 255 255
-1.000000 -0.900000 -0.900000 -1.000000 -0.000000 0.000000 255 0 0 255
-1.000000 -0.900000 0.900000 -1.000000 -0.000000 0.000000 255 0 0 255
-1.000000 0.900000 0.900000 -1.000000 -0.000000 0.000000 255 0 0 255
-1.000000 0.900000 -0.900000 -1.000000 -0.000000 0.000000 255 0 0 255
-0.900000 1.000000 -0.900000 0.000000 1.000000 0.000000 255 255 255 255
-0.900000 1.000000 0.900000 0.000000 1.000000 0.000000 255 255 255 255
0.900000 1.000000 0.900000 0.000000 1.000000 0.000000 255 255 255 255
0.900000 1.000000 -0.900000 0.000000 1.000000 0.000000 255 255 255 255
-0.900000 -0.900000 -1.000000 -0.256597 -0.256597 -0.931835 0 255 0 255
-0.900000 -0.949934 -0.986640 -0.256597 -0.256597 -0.931835 0 0 0 255
-0.947821 -0.947821 -0.973663 -0.256597 -0.256597 -0.931835 0 0 0 255
-0.949934 -0.900000 -0.986640 -0.256597 -0.256597 -0.931835 0 0 0 255
-0.900000 -0.949934 -0.986640 -0.217778 -0.690135 -0.690135 0 0 0 255
-0.900000 -0.986640 -0.949934 -0.217778 -0.690135 -0.690135 0 0 0 255
-0.947821 -0.973663 -0.947821 -0.217778 -0.690135 -0.690135 0 0 0 255
-0.947821 -0.947821 -0.973663 -0.217778 -0.690135 -0.690135 0 0 0 255
-0.900000 -1.000000 -0.900000 -0.256597 -0.931835 -0.256597 255 239 5 255
-0.949934 -0.986640 -0.900000 -0.256597 -0.931835 -0.256597 0 0 0 255
-0.947821 -0.973663 -0.947821 -0.256597 -0.931835 -0.256597 0 0 0 255
-0.900000 -0.986640 -0.949934 -0.256597 -0.931835 -0.256597 0 0 0 255
-0.949934 -0.986640 -0.900000 -0.690135 -0.690135 -0.217778 0 0 0 255
-0.986640 -0.949934 -0.900000 -0.690135 -0.690135 -0.217778 0 0 0 255
-0.973663 -0.947821 -0.947821 -0.690135 -0.690135 -0.217778 0 0 0 255
-0.947821 -0.973663 -0.947821 -0.690135 -0.690135 -0.217778 0 0 0 255
-1.000000 -0.900000 -0.900000 -0.931835 -0.256597 -0.256597 255 0 0 255
-0.986640 -0.900000 -0.949934 -0.931835 -0.256597 -0.256597 0 0 0 255
-0.973663 -0.947821 -0.947821 -0.931835 -0.256597 -0.256597 0 0 0 255
-0.986640 -0.949934 -0.900000 -0.931835 -0.256597 -0.256597 0 0 0 255
-0.986640 -0.900000 -0.949934 -0.690135 -0.217778 -0.690135 0 0 0 255
-0.949934 -0.900000 -0.986640 -0.690135 -0.217778 -0.690135 0 0 0 255
-0.947821 -0.947821 -0.973663 -0.690135 -0.217778 -0.690135 0 0 0 255
-0.973663 -0.947821 -0.947821 -0.690135 -0.217778 -0.690135 0 0 0 255
-0.947821 -0.947821 -0.973663 -0.577350 -0.577350 -0.577350 0 0 0 255
-0.947821 -0.973663 -0.947821 -0.577350 -0.577350 -0.577350 0 0 0 255
-0.973663 -0.947821 -0.947821 -0.577350 -0.577350 -0.577350 0 0 0 255
-0.900000 -1.000000 0.900000 -0.256597 -0.931835 0.256597 255 239 5 255
-0.900000 -0.986640 0.949934 -0.256597 -0.931835 0.256597 0 0 0 255
-0.947821 -0.973663 0.947821 -0.256597 -0.931835 0.256597 0 0 0 255
-0.949934 -0.986640 0.900000 -0.256597 -0.931835 0.256597 0 0 0 255
-0.900000 -0.986640 0.949934 -0.217778 -0.690135 0.690135 0 0 0 255
-0.900000 -0.949934 0.986640 -0.217778 -0.690135 0.690135 0 0 0 255
-0.947821 -0.947821 0.973663 -0.217778 -0.690135 0.690135 0 0 0 255
-0.947821 -0.973663 0.947821 -0.217778 -0.690135 0.690135 0 0 0 255
-0.900000 -0.900000 1.000000 -0.256597 -0.256597 0.931835 0 0 255 255
-0.949934 -0.900000 0.986640 -0.256597 -0.256597 0.931835 0 0 0 255
-0.947821 -0.947821 0.973663 -0.256597 -0.256597 0.931835 0 0 0 255
-0.900000 -0.949934 0.986640 -0.256597 -0.256597 0.931835 0 0 0 255
-0.949934 -0.900000 0.986640 -0.690135 -0.217778 0.690135 0 0 0 255
-0.986640 -0.900000 0.949934 -0.690135 -0.217778 0.690135 0 0 0 255
-0.973663 -0.947821 0.947821 -0.690135 -0.217778 0.690135 0 0 0 255
-0.947821 -0.947821 0.973663 -0.690135 -0.217778 0.690135 0 0 0 255
-1.000000 -0.900000 0.900000 -0.931835 -0.256597 0.256597 255 0 0 255
-0.986640 -0.949934 0.900000 -0.931835 -0.256597 0.256597 0 0 0 255
-0.973663 -0.947821 0.947821 -0.931835 -0.256597 0.256597 0 0 0 255
-0.986640 -0.900000 0.949934 -0.931835 -0.256597 0.256597 0 0 0 255
-0.986640 -0.949934 0.900000 -0.690135 -0.690135 0.217778 0 0 0 255
-0.949934 -0.986640 0.900000 -0.690135 -0.690135 0.217778 0 0 0 255
-0.947821 -0.973663 0.947821 -0.690135 -0.690135 0.217778 0 0 0 255
-0.973663 -0.947821 0.947821 -0.690135 -0.690135 0.217778 0 0 0 255
-0.947821 -0.973663 0.947821 -0.577350 -0.577350 0.577350 0 0 0 255
-0.947821 -0.947821 0.973663 -0.577350 -0.577350 0.577350 0 0 0 255
-0.973663 -0.947821 0.947821 -0.577350 -0.577350 0.577350 0 0 0 255
-0.900000 0.900000 -1.000000 -0.256597 0.256597 -0.931835 0 255 0 255
-0.949934 0.900000 -0.986640 -0.256597 0.256597 -0.931835 0 0 0 255
-0.947821 0.947821 -0.973663 -0.256597 0.256597 -0.931835 0 0 0 255
-0.900000 0.949934 -0.986640 -0.256597 0.256597 -0.931835 0 0 0 255
-0.949934 0.900000 -0.986640 -0.690135 0.217778 -0.690135 0 0 0 255
-0.986640 0.900000 -0.949934 -0.690135 0.217778 -0.690135 0 0 0 255
-0.973663 0.947821 -0.947821 -0.690135 0.217778 -0.690135 0 0 0 255
-0.947821 0.947821 -0.973663 -0.690135 0.217778 -0.690135 0 0 0 255
-1.000000 0.900000 -0.900000 -0.931835 0.256597 -0.256597 255 0 0 255
-0.986640 0.949934 -0.900000 -0.931835 0.256597 -0.256597 0 0 0 255
-0.973663 0.947821 -0.947821 -0.931835 0.256597 -0.256597 0 0 0 255
-0.986640 0.900000 -0.949934 -0.931835 0.256597 -0.256597 0 0 0 255
-0.986640 0.949934 -0.900000 -0.690135 0.690135 -0.217778 0 0 0 255
-0.949934 0.986640 -0.900000 -0.690135 0.690135 -0.217778 0 0 0 255
-0.947821 0.973663 -0.947821 -0.690135 0.690135 -0.217778 0 0 0 255
-0.973663 0.947821 -0.947821 -0.690135 0.690135 -0.217778 0 0 0 255
-0.900000 1.000000 -0.900000 -0.256597 0.931835 -0.256597 255 255 255 255
-0.900000 0.986640 -0.949934 -0.256597 0.931835 -0.256597 0 0 0 255
-0.947821 0.973663 -0.947821 -0.256597 0.931835 -0.256597 0 0 0 255
-0.949934 0.986640 -0.900000 -0.256597 0.931835 -0.256597 0 0 0 255
-0.900000 0.986640 -0.949934 -0.217778 0.690135 -0.690135 0 0 0 255
-0.900000 0.949934 -0.986640 -0.217778 0.690135 -0.690135 0 0 0 255
-0.947821 0.947821 -0.973663 -0.217778 0.690135 -0.690135 0 0 0 255
-0.947821 0.973663 -0.947821 -0.217778 0.690135 -0.690135 0 0 0 255
-0.947821 0.947821 -0.973663 -0.577350 0.577350 -0.577350 0 0 0 255
-0.973663 0.947821 -0.947821 -0.577350 0.577350 -0.577350 0 0 0 255
-0.947821 0.973663 -0.947821 -0.577350 0.577350 -0.577350 0 0 0 255
-0.900000 0.900000 1.000000 -0.256597 0.256597 0.931835 0 0 255 255
-0.900000 0.949934 0.986640 -0.256597 0.256597 0.931835 0 0 0 255
-0.947821 0.947821 0.973663 -0.256597 0.256597 0.931835 0 0 0 255
-0.949934 0.900000 0.986640 -0.256597 0.256597 0.931835 0 0 0 255
-0.900000 0.949934 0.986640 -0.217778 0.690135 0.690135 0 0 0 255
-0.900000 0.986640 0.949934 -0.217778 0.690135 0.690135 0 0 0 255
-0.947821 0.973663 0.947821 -0.217778 0.690135 0.690135 0 0 0 255
-0.947821 0.947821 0.973663 -0.217778 0.690135 0.690135 0 0 0 255
-0.900000 1.000000 0.900000 -0.256597 0.931835 0.256597 255 255 255 255
-0.949934 0.986640 0.900000 -0.256597 0.931835 0.256597 0 0 0 255
-0.947821 0.973663 0.947821 -0.256597 0.931835 0.256597 0 0 0 255
-0.900000 0.986640 0.949934 -0.256597 0.931835 0.256597 0 0 0 255
-0.949934 0.986640 0.900000 -0.690135 0.690135 0.217778 0 0 0 255
-0.986640 0.949934 0.900000 -0.690135 0.690135 0.217778 0 0 0 255
-0.973663 0.947821 0.947821 -0.690135 0.690135 0.217778 0 0 0 255
-0.947821 0.973663 0.947821 -0.690135 0.690135 0.217778 0 0 0 255
-1.000000 0.900000 0.900000 -0.931835 0.256597 0.256597 255 0 0 255
-0.986640 0.900000 0.949934 -0.931835 0.256597 0.256597 0 0 0 255
-0.973663 0.947821 0.947821 -0.931835 0.256597 0.256597 0 0 0 255
-0.986640 0.949934 0.900000 -0.931835 0.256597 0.256597 0 0 0 255
-0.986640 0.900000 0.949934 -0.690135 0.217778 0.690135 0 0 0 255
-0.949934 0.900000 0.986640 -0.690135 0.217778 0.690135 0 0 0 255
-0.947821 0.947821 0.973663 -0.690135 0.217778 0.690135 0 0 0 255
-0.973663 0.947821 0.947821 -0.690135 0.217778 0.690135 0 0 0 255
-0.947821 0.947821 0.973663 -0.577350 0.577350 0.577350 0 0 0 255
-0.947821 0.973663 0.947821 -0.577350 0.577350 0.577350 0 0 0 255
-0.973663 0.947821 0.947821 -0.577350 0.577350 0.577350 0 0 0 255
0.900000 -0.900000 -1.000000 0.256597 -0.256597 -0.931835 0 255 0 255
0.949934 -0.900000 -0.986640 0.256597 -0.256597 -0.931835 0 0 0 255
0.947821 -0.947821 -0.973663 0.256597 -0.256597 -0.931835 0 0 0 255
0.900000 -0.949934 -0.986640 0.256597 -0.256597 -0.931835 0 0 0 255
0.949934 -0.900000 -0.986640 0.690135 -0.217778 -0.690135 0 0 0 255
0.986640 -0.900000 -0.949934 0.690135 -0.217778 -0.690135 0 0 0 255
0.973663 -0.947821 -0.947821 0.690135 -0.217778 -0.690135 0 0 0 255
0.947821 -0.947821 -0.973663 0.690135 -0.217778 -0.690135 0 0 0 255
1.000000 -0.900000 -0.900000 0.931835 -0.256597 -0.256597 255 121 0 255
0.986640 -0.949934 -0.900000 0.931835 -0.256597 -0.256597 0 0 0 255
0.973663 -0.947821 -0.947821 0.931835 -0.256597 -0.256597 0 0 0 255
0.986640 -0.900000 -0.949934 0.931835 -0.256597 -0.256597 0 0 0 255
0.986640 -0.949934 -0.900000 0.690135 -0.690135 -0.217778 0 0 0 255
0.949934 -0.986640 -0.900000 0.690135 -0.690135 -0.217778 0 0 0 255
0.947821 -0.973663 -0.947821 0.690135 -0.690135 -0.217778 0 0 0 255
0.973663 -0.947821 -0.947821 0.690135 -0.690135 -0.217778 0 0 0 255
0.900000 -1.000000 -0.900000 0.256597 -0.931835 -0.256597 255 239 5 255
0.900000 -0.986640 -0.949934 0.256597 -0.931835 -0.256597 0 0 0 255
0.947821 -0.973663 -0.947821 0.256597 -0.931835 -0.256597 0 0 0 255
0.949934 -0.986640 -0.900000 0.256597 -0.931835 -0.256597 0 0 0 255
0.900000 -0.986640 -0.949934 0.217778 -0.690135 -0.690135 0 0 0 255
0.900000 -0.949934 -0.986640 0.217778 -0.690135 -0.690135 0 0 0 255
0.947821 -0.947821 -0.973663 0.217778 -0.690135 -0.690135 0 0 0 255
0.947821 -0.973663 -0.947821 0.217778 -0.690135 -0.690135 0 0 0 255
0.947821 -0.947821 -0.973663 0.577350 -0.577350 -0.577350 0 0 0 255
0.973663 -0.947821 -0.947821 0.577350 -0.577350 -0.577350 0 0 0 255
0.947821 -0.973663 -0.947821 0.577350 -0.577350 -0.577350 0 0 0 255
0.900000 -0.900000 1.000000 0.256597 -0.256597 0.931835 0 0 255 255
0.900000 -0.949934 0.986640 0.256597 -0.256597 0.931835 0 0 0 255
0.947821 -0.947821 0.973663 0.256597 -0.256597 0.931835 0 0 0 255
0.949934 -0.900000 0.986640 0.256597 -0.256597 0.931835 0 0 0 255
0.900000 -0.949934 0.986640 0.217778 -0.690135 0.690135 0 0 0 255
0.900000 -0.986640 0.949934 0.217778 -0.690135 0.690135 0 0 0 255
0.947821 -0.973663 0.947821 0.217778 -0.690135 0.690135 0 0 0 255
0.947821 -0.947821 0.973663 0.217778 -0.690135 0.690135 0 0 0 255
0.900000 -1.000000 0.900000 0.256597 -0.931835 0.256597 255 239 5 255
0.949934 -0.986640 0.900000 0.256597 -0.931835 0.256597 0 0 0 255
0.947821 -0.973663 0.947821 0.256597 -0.931835 0.256597 0 0 0 255
0.900000 -0.986640 0.949934 0.256597 -0.931835 0.256597 0 0 0 255
0.949934 -0.986640 0.900000 0.690135 -0.690135 0.217778 0 0 0 255
0.986640 -0.949934 0.900000 0.690135 -0.690135 0.217778 0 0 0 255
0.973663 -0.947821 0.947821 0.690135 -0.690135 0.217778 0 0 0 255
0.947821 -0.973663 0.947821 0.690135 -0.690135 0.217778 0 0 0 255
1.000000 -0.900000 0.900000 0.931835 -0.256597 0.256597 255 121 0 255
0.986640 -0.900000 0.949934 0.931835 -0.256597 0.256597 0 0 0 255
0.973663 -0.947821 0.947821 0.931835 -0.256597 0.256597 0 0 0 255
0.986640 -0.949934 0.900000 0.931835 -0.256597 0.256597 0 0 0 255
0.986640 -0.900000 0.949934 0.690135 -0.217778 0.690135 0 0 0 255
0.949934 -0.900000 0.986640 0.690135 -0.217778 0.690135 0 0 0 255
0.947821 -0.947821 0.973663 0.690135 -0.217778 0.690135 0 0 0 255
0.973663 -0.947821 0.947821 0.690135 -0.217778 0.690135 0 0 0 255
0.947821 -0.947821 0.973663 0.577350 -0.577350 0.577350 0 0 0 255
0.947821 -0.973663 0.947821 0.577350 -0.577350 0.577350 0 0 0 255
0.973663 -0.947821 0.947821 0.577350 -0.577350 0.577350 0 0 0 255
0.900000 0.900000 -1.000000 0.256597 0.256597 -0.931835 0 255 0 255
0.900000 0.949934 -0.986640 0.256597 0.256597 -0.931835 0 0 0 255
0.947821 0.947821 -0.973663 0.256597 0.256597 -0.931835 0 0 0 255
0.949934 0.900000 -0.986640 0.256597 0.256597 -0.931835 0 0 0 255
0.900000 0.949934 -0.986640 0.217778 0.690135 -0.690135 0 0 0 255
0.900000 0.986640 -0.949934 0.217778 0.690135 -0.690135 0 0 0 255
0.947821 0.973663 -0.947821 0.217778 0.690135 -0.690135 0 0 0 255
0.947821 0.947821 -0.973663 0.217778 0.690135 -0.690135 0 0 0 255
0.900000 1.000000 -0.900000 0.256597 0.931835 -0.256597 255 255 255 255
0.949934 0.986640 -0.900000 0.256597 0.931835 -0.256597 0 0 0 255
0.947821 0.973663 -0.947821 0.256597 0.931835 -0.256597 0 0 0 255
0.900000 0.986640 -0.949934 0.256597 0.931835 -0.256597 0 0 0 255
0.949934 0.986640 -0.900000 0.690135 0.690135 -0.217778 0 0 0 255
0.986640 0.949934 -0.900000 0.690135 0.690135 -0.217778 0 0 0 255
0.973663 0.947821 -0.947821 0.690135 0.690135 -0.217778 0 0 0 255
0.947821 0.973663 -0.947821 0.690135 0.690135 -0.217778 0 0 0 255
1.000000 0.900000 -0.900000 0.931835 0.256597 -0.256597 255 121 0 255
0.986640 0.900000 -0.949934 0.931835 0.256597 -0.256597 0 0 0 255
0.973663 0.947821 -0.947821 0.931835 0.256597 -0.256597 0 0 0 255
0.986640 0.949934 -0.900000 0.931835 0.256597 -0.256597 0 0 0 255
0.986640 0.900000 -0.949934 0.690135 0.217778 -0.690135 0 0 0 255
0.949934 0.900000 -0.986640 0.690135 0.217778 -0.690135 0 0 0 255
0.947821 0.947821 -0.973663 0.690135 0.217778 -0.690135 0 0 0 255
0.973663 0.947821 -0.947821 0.690135 0.217778 -0.690135 0 0 0 255
0.947821 0.947821 -0.973663 0.577350 0.577350 -0.577350 0 0 0 255
0.947821 0.973663 -0.947821 0.577350 0.577350 -0.577350 0 0 0 255
0.973663 0.947821 -0.947821 0.577350 0.577350 -0.577350 0 0 0 255
0.900000 0.900000 1.000000 0.256597 0.256597 0.931835 0 0 255 255
0.949934 0.900000 0.986640 0.256597 0.256597 0.931835 0 0 0 255
0.947821 0.947821 0.973663 0.256597 0.256597 0.931835 0 0 0 255
0.900000 0.949934 0.986640 0.256597 0.256597 0.931835 0 0 0 255
0.949934 0.900000 0.986640 0.690135 0.217778 0.690135 0 0 0 255
0.986640 0.900000 0.949934 0.690135 0.217778 0.690135 0 0 0 255
0.973663 0.947821 0.947821 0.690135 0.217778 0.690135 0 0 0 255
0.947821 0.947821 0.973663 0.690135 0.217778 0.690135 0 0 0 255
1.000000 0.900000 0.900000 0.931835 0.256597 0.256597 255 121 0 255
0.986640 0.949934 0.900000 0.931835 0.256597 0.256597 0 0 0 255
0.973663 0.947821 0.947821 0.931835 0.256597 0.256597 0 0 0 255
0.986640 0.900000 0.949934 0.931835 0.256597 0.256597 0 0 0 255
0.986640 0.949934 0.900000 0.690135 0.690135 0.217778 0 0 0 255
0.949934 0.986640 0.900000 0.690135 0.690135 0.217778 0 0 0 255
0.947821 0.973663 0.947821 0.690135 0.690135 0.217778 0 0 0 255
0.973663 0.947821 0.947821 0.690135 0.690135 0.217778 0 0 0 255
0.900000 1.000000 0.900000 0.256597 0.931835 0.256597 255 255 255 255
0.900000 0.986640 0.949934 0.256597 0.931835 0.256597 0 0 0 255
0.947821 0.973663 0.947821 0.256597 0.931835 0.256597 0 0 0 255
0.949934 0.986640 0.900000 0.256597 0.931835 0.256597 0 0 0 255
0.900000 0.986640 0.949934 0.217778 0.690135 0.690135 0 0 0 255
0.900000 0.949934 0.986640 0.217778 0.690135 0.690135 0 0 0 255
0.947821 0.947821 0.973663 0.217778 0.690135 0.690135 0 0 0 255
0.947821 0.973663 0.947821 0.217778 0.690135 0.690135 0 0 0 255
0.947821 0.947821 0.973663 0.577350 0.577350 0.577350 0 0 0 255
0.973663 0.947821 0.947821 0.577350 0.577350 0.577350 0 0 0 255
0.947821 0.973663 0.947821 0.577350 0.577350 0.577350 0 0 0 255
-0.900000 0.900000 -1.000000 -0.258453 0.000000 -0.966024 0 255 0 255
-0.900000 -0.900000 -1.000000 -0.258453 0.000000 -0.966024 0 255 0 255
-0.949934 -0.900000 -0.986640 -0.258453 0.000000 -0.966024 0 0 0 255
-0.949934 0.900000 -0.986640 -0.258453 0.000000 -0.966024 0 0 0 255
-0.949934 0.900000 -0.986640 -0.707107 0.000000 -0.707107 0 0 0 255
-0.949934 -0.900000 -0.986640 -0.707107 0.000000 -0.707107 0 0 0 255
-0.986640 -0.900000 -0.949934 -0.707107 0.000000 -0.707107 0 0 0 255
-0.986640 0.900000 -0.949934 -0.707107 0.000000 -0.707107 0 0 0 255
-0.986640 0.900000 -0.949934 -0.966024 0.000000 -0.258453 0 0 0 255
-0.986640 -0.900000 -0.949934 -0.966024 0.000000 -0.258453 0 0 0 255
-1.000000 -0.900000 -0.900000 -0.966024 0.000000 -0.258453 255 0 0 255
-1.000000 0.900000 -0.900000 -0.966024 0.000000 -0.258453 255 0 0 255
-0.900000 -1.000000 -0.900000 -0.258453 -0.966024 0.000000 255 239 5 255
-0.900000 -1.000000 0.900000 -0.258453 -0.966024 0.000000 255 239 5 255
-0.949934 -0.986640 0.900000 -0.258453 -0.966024 0.000000 0 0 0 255
-0.949934 -0.986640 -0.900000 -0.258453 -0.966024 0.000000 0 0 0 255
-0.949934 -0.986640 -0.900000 -0.707107 -0.707107 0.000000 0 0 0 255
-0.949934 -0.986640 0.900000 -0.707107 -0.707107 0.000000 0 0 0 255
-0.986640 -0.949934 0.900000 -0.707107 -0.707107 0.000000 0 0 0 255
-0.986640 -0.949934 -0.900000 -0.707107 -0.707107 0.000000 0 0 0 255
-0.986640 -0.949934 -0.900000 -0.966024 -0.258453 0.000000 0 0 0 255
-0.986640 -0.949934 0.900000 -0.966024 -0.258453 0.000000 0 0 0 255
-1.000000 -0.900000 0.900000 -0.966024 -0.258453 0.000000 255 0 0 255
-1.000000 -0.900000 -0.900000 -0.966024 -0.258453 0.000000 255 0 0 255
-0.900000 -0.900000 1.000000 -0.258453 0.000000 0.966024 0 0 255 255
-0.900000 0.900000 1.000000 -0.258453 0.000000 0.966024 0 0 255 255
-0.949934 0.900000 0.986640 -0.258453 0.000000 0.966024 0 0 0 255
-0.949934 -0.900000 0.986640 -0.258453 0.000000 0.966024 0 0 0 255
-0.949934 -0.900000 0.986640 -0.707107 0.000000 0.707107 0 0 0 255
-0.949934 0.900000 0.986640 -0.707107 0.000000 0.707107 0 0 0 255
-0.986640 0.900000 0.949934 -0.707107 0.000000 0.707107 0 0 0 255
-0.986640 -0.900000 0.949934 -0.707107 0.000000 0.707107 0 0 0 255
-0.986640 -0.900000 0.949934 -0.966024 0.000000 0.258453 0 0 0 255
-0.986640 0.900000 0.949934 -0.966024 0.000000 0.258453 0 0 0 255
-1.000000 0.900000 0.900000 -0.966024 0.000000 0.258453 255 0 0 255
-1.000000 -0.900000 0.900000 -0.966024 0.000000 0.258453 255 0 0 255
-0.900000 1.000000 0.900000 -0.258453 0.966024 0.000000 255 255 255 255
-0.900000 1.000000 -0.900000 -0.258453 0.966024 0.000000 255 255 255 255
-0.949934 0.986640 -0.900000 -0.258453 0.966024 0.000000 0 0 0 255
-0.949934 0.986640 0.900000 -0.258453 0.966024 0.000000 0 0 0 255
-0.949934 0.986640 0.900000 -0.707107 0.707107 0.000000 0 0 0 255
-0.949934 0.986640 -0.900000 -0.707107 0.707107 0.000000 0 0 0 255
-0.986640 0.949934 -0.900000 -0.707107 0.707107 0.000000 0 0 0 255
-0.986640 0.949934 0.900000 -0.707107 0.707107 0.000000 0 0 0 255
-0.986640 0.949934 0.900000 -0.966024 0.258453 0.000000 0 0 0 255
-0.986640 0.949934 -0.900000 -0.966024 0.258453 0.000000 0 0 0 255
-1.000000 0.900000 -0.900000 -0.966024 0.258453 0.000000 255 0 0 255
-1.000000 0.900000 0.900000 -0.966024 0.258453 0.000000 255 0 0 255
0.900000 0.900000 -1.000000 0.000000 0.258453 -0.966024 0 255 0 255
-0.900000 0.900000 -1.000000 0.000000 0.258453 -0.966024 0 255 0 255
-0.900000 0.949934 -0.986640 0.000000 0.258453 -0.966024 0 0 0 255
0.900000 0.949934 -0.986640 0.000000 0.258453 -0.966024 0 0 0 255
0.900000 0.949934 -0.986640 0.000000 0.707107 -0.707107 0 0 0 255
-0.900000 0.949934 -0.986640 0.000000 0.707107 -0.707107 0 0 0 255
-0.900000 0.986640 -0.949934 0.000000 0.707107 -0.707107 0 0 0 255
0.900000 0.986640 -0.949934 0.000000 0.707107 -0.707107 0 0 0 255
0.900000 0.986640 -0.949934 0.000000 0.966024 -0.258453 0 0 0 255
-0.900000 0.986640 -0.949934 0.000000 0.966024 -0.258453 0 0 0 255
-0.900000 1.000000 -0.900000 0.000000 0.966024 -0.258453 255 255 255 255
0.900000 1.000000 -0.900000 0.000000 0.966024 -0.258453 255 255 255 255
-0.900000 0.900000 1.000000 0.000000 0.258453 0.966024 0 0 255 255
0.900000 0.900000 1.000000 0.000000 0.258453 0.966024 0 0 255 255
0.900000 0.949934 0.986640 0.000000 0.258453 0.966024 0 0 0 255
-0.900000 0.949934 0.986640 0.000000 0.258453 0.966024 0 0 0 255
-0.900000 0.949934 0.986640 0.000000 0.707107 0.707107 0 0 0 255
0.900000 0.949934 0.986640 0.000000 0.707107 0.707107 0 0 0 255
0.900000 0.986640 0.949934 0.000000 0.707107 0.707107 0 0 0 255
-0.900000 0.986640 0.949934 0.000000 0.707107 0.707107 0 0 0 255
-0.900000 0.986640 0.949934 0.000000 0.966024 0.258453 0 0 0 255
0.900000 0.986640 0.949934 0.000000 0.966024 0.258453 0 0 0 255
0.900000 1.000000 0.900000 0.000000 0.966024 0.258453 255 255 255 255
-0.900000 1.000000 0.900000 0.000000 0.966024 0.258453 255 255 255 255
1.000000 0.900000 0.900000 0.966024 0.258453 0.000000 255 121 0 255
1.000000 0.900000 -0.900000 0.966024 0.258453 0.000000 255 121 0 255
0.986640 0.949934 -0.900000 0.966024 0.258453 0.000000 0 0 0 255
0.986640 0.949934 0.900000 0.966024 0.258453 0.000000 0 0 0 255
0.986640 0.949934 0.900000 0.707107 0.707107 0.000000 0 0 0 255
0.986640 0.949934 -0.900000 0.707107 0.707107 0.000000 0 0 0 255
0.949934 0.986640 -0.900000 0.707107 0.707107 0.000000 0 0 0 255
0.949934 0.986640 0.900000 0.707107 0.707107 0.000000 0 0 0 255
0.949934 0.986640 0.900000 0.258453 0.966024 0.000000 0 0 0 255
0.949934 0.986640 -0.900000 0.258453 0.966024 0.000000 0 0 0 255
0.900000 1.000000 -0.900000 0.258453 0.966024 0.000000 255 255 255 255
0.900000 1.000000 0.900000 0.258453 0.966024 0.000000 255 255 255 255
0.900000 -0.900000 -1.000000 0.258453 0.000000 -0.966024 0 255 0 255
0.900000 0.900000 -1.000000 0.258453 0.000000 -0.966024 0 255 0 255
0.949934 0.900000 -0.986640 0.258453 0.000000 -0.966024 0 0 0 255
0.949934 -0.900000 -0.986640 0.258453 0.000000 -0.966024 0 0 0 255
0.949934 -0.900000 -0.986640 0.707107 0.000000 -0.707107 0 0 0 255
0.949934 0.900000 -0.986640 0.707107 0.000000 -0.707107 0 0 0 255
0.986640 0.900000 -0.949934 0.707107 0.000000 -0.707107 0 0 0 255
0.986640 -0.900000 -0.949934 0.707107 0.000000 -0.707107 0 0 0 255
0.986640 -0.900000 -0.949934 0.966024 0.000000 -0.258453 0 0 0 255
0.986640 0.900000 -0.949934 0.966024 0.000000 -0.258453 0 0 0 255
1.000000 0.900000 -0.900000 0.966024 0.000000 -0.258453 255 121 0 255
1.000000 -0.900000 -0.900000 0.966024 0.000000 -0.258453 255 121 0 255
0.900000 0.900000 1.000000 0.258453 0.000000 0.966024 0 0 255 255
0.900000 -0.900000 1.000000 0.258453 0.000000 0.966024 0 0 255 255
0.949934 -0.900000 0.986640 0.258453 0.000000 0.966024 0 0 0 255
0.949934 0.900000 0.986640 0.258453 0.000000 0.966024 0 0 0 255
0.949934 0.900000 0.986640 0.707107 0.000000 0.707107 0 0 0 255
0.949934 -0.900000 0.986640 0.707107 0.000000 0.707107 0 0 0 255
0.986640 -0.900000 0.949934 0.707107 0.000000 0.707107 0 0 0 255
0.986640 0.900000 0.949934 0.707107 0.000000 0.707107 0 0 0 255
0.986640 0.900000 0.949934 0.966024 0.000000 0.258453 0 0 0 255
0.986640 -0.900000 0.949934 0.966024 0.000000 0.258453 0 0 0 255
1.000000 -0.900000 0.900000 0.966024 0.000000 0.258453 255 121 0 255
1.000000 0.900000 0.900000 0.966024 0.000000 0.258453 255 121 0 255
0.900000 -1.000000 0.900000 0.258453 -0.966024 0.000000 255 239 5 255
0.900000 -1.000000 -0.900000 0.258453 -0.966024 0.000000 255 239 5 255
0.949934 -0.986640 -0.900000 0.258453 -0.966024 0.000000 0 0 0 255
0.949934 -0.986640 0.900000 0.258453 -0.966024 0.000000 0 0 0 255
0.949934 -0.986640 0.900000 0.707107 -0.707107 0.000000 0 0 0 255
0.949934 -0.986640 -0.900000 0.707107 -0.707107 0.000000 0 0 0 255
0.986640 -0.949934 -0.900000 0.707107 -0.707107 0.000000 0 0 0 255
0.986640 -0.949934 0.900000 0.707107 -0.707107 0.000000 0 0 0 255
0.986640 -0.949934 0.900000 0.966024 -0.258453 0.000000 0 0 0 255
0.986640 -0.949934 -0.900000 0.966024 -0.258453 0.000000 0 0 0 255
1.000000 -0.900000 -0.900000 0.966024 -0.258453 0.000000 255 121 0 255
1.000000 -0.900000 0.900000 0.966024 -0.258453 0.000000 255 121 0 255
-0.900000 -0.900000 -1.000000 0.000000 -0.258453 -0.966024 0 255 0 255
0.900000 -0.900000 -1.000000 0.000000 -0.258453 -0.966024 0 255 0 255
0.900000 -0.949934 -0.986640 0.000000 -0.258453 -0.966024 0 0 0 255
-0.900000 -0.949934 -0.986640 0.000000 -0.258453 -0.966024 0 0 0 255
-0.900000 -0.949934 -0.986640 0.000000 -0.707107 -0.707107 0 0 0 255
0.900000 -0.949934 -0.986640 0.000000 -0.707107 -0.707107 0 0 0 255
0.900000 -0.986640 -0.949934 0.000000 -0.707107 -0.707107 0 0 0 255
-0.900000 -0.986640 -0.949934 0.000000 -0.707107 -0.707107 0 0 0 255
-0.900000 -0.986640 -0.949934 0.000000 -0.966024 -0.258453 0 0 0 255
0.900000 -0.986640 -0.949934 0.000000 -0.966024 -0.258453 0 0 0 255
0.900000 -1.000000 -0.900000 0.000000 -0.966024 -0.258453 255 239 5 255
-0.900000 -1.000000 -0.900000 0.000000 -0.966024 -0.258453 255 239 5 255
0.900000 -0.900000 1.000000 0.000000 -0.258453 0.966024 0 0 255 255
-0.900000 -0.900000 1.000000 0.000000 -0.258453 0.966024 0 0 255 255
-0.900000 -0.949934 0.986640 0.000000 -0.258453 0.966024 0 0 0 255
0.900000 -0.949934 0.986640 0.000000 -0.258453 0.966024 0 0 0 255
0.900000 -0.949934 0.986640 0.000000 -0.707107 0.707107 0 0 0 255
-0.900000 -0.949934 0.986640 0.000000 -0.707107 0.707107 0 0 0 255
-0.900000 -0.986640 0.949934 0.000000 -0.707107 0.707107 0 0 0 255
0.900000 -0.986640 0.949934 0.000000 -0.707107 0.707107 0 0 0 255
0.900000 -0.986640 0.949934 0.000000 -0.966024 0.258453 0 0 0 255
-0.900000 -0.986640 0.949934 0.000000 -0.966024 0.258453 0 0 0 255
-0.900000 -1.000000 0.900000 0.000000 -0.966024 0.258453 255 239 5 255
0.900000 -1.000000 0.900000 0.000000 -0.966024 0.258453 255 239 5 255
-0.900000 0.900000 -1.000000 0.000000 0.000000 -1.000000 0 255 0 255
0.900000 0.900000 -1.000000 0.000000 0.000000 -1.000000 0 255 0 255
0.900000 -0.900000 -1.000000 0.000000 0.000000 -1.000000 0 255 0 255
-0.900000 -0.900000 -1.000000 0.000000 0.000000 -1.000000 0 255 0 255
4 0 1 2 3
4 4 5 6 7
4 8 9 10 11
4 12 13 14 15
4 16 17 18 19
4 20 21 22 23
4 24 25 26 27
4 28 29 30 31
4 32 33 34 35
4 36 37 38 39
4 40 41 42 43
3 44 45 46
4 47 48 49 50
4 51 52 53 54
4 55 56 57 58
4 59 60 61 62
4 63 64 65 66
4 67 68 69 70
3 71 72 73
4 74 75 76 77
4 78 79 80 81
4 82 83 84 85
4 86 87 88 89
4 90 91 92 93
4 94 95 96 97
3 98 99 100
4 101 102 103 104
4 105 106 107 108
4 109 110 111 112
4 113 114 115 116
4 117 118 119 120
4 121 122 123 124
3 125 126 127
4 128 129 130 131
4 132 133 134 135
4 136 137 138 139
4 140 141 142 143
4 144 145 146 147
4 148 149 150 151
3 152 153 154
4 155 156 157 158
4 159 160 161 162
4 163 164 165 166
4 167 168 169 170
4 171 172 173 174
4 175 176 177 178
3 179 180 181
4 182 183 184 185
4 186 187 188 189
4 190 191 192 193
4 194 195 196 197
4 198 199 200 201
4 202 203 204 205
3 206 207 208
4 209 210 211 212
4 213 214 215 216
4 217 218 219 220
4 221 222 223 224
4 225 226 227 228
4 229 230 231 232
3 233 234 235
4 236 237 238 239
4 240 241 242 243
4 244 245 246 247
4 248 249 250 251
4 252 253 254 255
4 256 257 258 259
4 260 261 262 263
4 264 265 266 267
4 268 269 270 271
4 272 273 274 275
4 276 277 278 279
4 280 281 282 283
4 284 285 286 287
4 288 289 290 291
4 292 293 294 295
4 296 297 298 299
4 300 301 302 303
4 304 305 306 307
4 308 309 310 311
4 312 313 314 315
4 316 317 318 319
4 320 321 322 323
4 324 325 326 327
4 328 329 330 331
4 332 333 334 335
4 336 337 338 339
4 340 341 342 343
4 344 345 346 347
4 348 349 350 351
4 352 353 354 355
4 356 357 358 359
4 360 361 362 363
4 364 365 366 367
4 368 369 370 371
4 372 373 374 375
4 376 377 378 379
4 380 381 382 383
